<svg width="31" height="52" viewBox="0 0 31 52" fill="none" xmlns="http://www.w3.org/2000/svg">
<mask id="path-1-inside-1_2_28" fill="white">
<path fill-rule="evenodd" clip-rule="evenodd" d="M9.24056 37.9611H0V13.9611H8.8986L24.7021 0.482159C26.0005 -0.625179 28 0.297452 28 2.00386V49.6266C28 51.333 26.0005 52.2556 24.7021 51.1483L9.24056 37.9611Z"/>
</mask>
<path d="M9.24056 37.9611L10.5384 36.4394L9.97762 35.9611H9.24056V37.9611ZM0 37.9611H-2V39.9611H0V37.9611ZM0 13.9611V11.9611H-2V13.9611H0ZM8.8986 13.9611V15.9611H9.63567L10.1965 15.4828L8.8986 13.9611ZM24.7021 0.482159L23.4043 -1.03954L23.4043 -1.03954L24.7021 0.482159ZM24.7021 51.1483L23.4043 52.67L23.4043 52.67L24.7021 51.1483ZM9.24056 35.9611H0V39.9611H9.24056V35.9611ZM2 37.9611V13.9611H-2V37.9611H2ZM0 15.9611H8.8986V11.9611H0V15.9611ZM10.1965 15.4828L26 2.00385L23.4043 -1.03954L7.60074 12.4394L10.1965 15.4828ZM26 2.00386L26 2.00386H30C30 -1.40895 26.0009 -3.25421 23.4043 -1.03954L26 2.00386ZM26 2.00386V49.6266H30V2.00386H26ZM26 49.6266L26 49.6266L23.4043 52.67C26.0009 54.8847 30 53.0394 30 49.6266H26ZM26 49.6266L10.5384 36.4394L7.9427 39.4828L23.4043 52.67L26 49.6266Z" fill="white" mask="url(#path-1-inside-1_2_28)"/>
<path d="M27 20.9611H29C30.1046 20.9611 31 21.8565 31 22.9611V29.9611C31 31.0656 30.1046 31.9611 29 31.9611H27V20.9611Z" fill="white"/>
</svg>
