<svg width="31" height="52" viewBox="0 0 31 52" fill="none" xmlns="http://www.w3.org/2000/svg">
<mask id="path-1-inside-1_2_28" fill="white">
<path fill-rule="evenodd" clip-rule="evenodd" d="M9.24056 37.9611H0V13.9611H8.8986L24.7021 0.482159C26.0005 -0.625179 28 0.297452 28 2.00386V49.6266C28 51.333 26.0005 52.2556 24.7021 51.1483L9.24056 37.9611Z"/>
</mask>
<path d="M9.24056 37.9611L11.1873 35.6785L10.3462 34.9611H9.24056V37.9611ZM0 37.9611H-3V40.9611H0V37.9611ZM0 13.9611V10.9611H-3V13.9611H0ZM8.8986 13.9611V16.9611H10.0042L10.8454 16.2436L8.8986 13.9611ZM24.7021 0.482159L22.7554 -1.80039L22.7554 -1.80038L24.7021 0.482159ZM24.7021 51.1483L22.7553 53.4308L22.7554 53.4309L24.7021 51.1483ZM9.24056 34.9611H0V40.9611H9.24056V34.9611ZM3 37.9611V13.9611H-3V37.9611H3ZM0 16.9611H8.8986V10.9611H0V16.9611ZM10.8454 16.2436L26.6489 2.7647L22.7554 -1.80038L6.95181 11.6785L10.8454 16.2436ZM26.6489 2.7647C25.9998 3.31838 25 2.85705 25 2.00386H31C31 -2.26215 26.0011 -4.56873 22.7554 -1.80039L26.6489 2.7647ZM25 2.00386V49.6266H31V2.00386H25ZM25 49.6266C25 48.7734 25.9998 48.3121 26.6489 48.8658L22.7554 53.4309C26.0011 56.1992 31 53.8926 31 49.6266H25ZM26.6489 48.8658L11.1873 35.6785L7.29377 40.2436L22.7553 53.4308L26.6489 48.8658Z" fill="white" mask="url(#path-1-inside-1_2_28)"/>
<path d="M27 20.9611H29C30.1046 20.9611 31 21.8565 31 22.9611V29.9611C31 31.0656 30.1046 31.9611 29 31.9611H27V20.9611Z" fill="white"/>
</svg>
