<svg width="31" height="52" viewBox="0 0 31 52" fill="none" xmlns="http://www.w3.org/2000/svg">
<mask id="path-1-inside-1_2_28" fill="white">
<path fill-rule="evenodd" clip-rule="evenodd" d="M9.24056 37.9611H0V13.9611H8.8986L24.7021 0.482159C26.0005 -0.625179 28 0.297452 28 2.00386V49.6266C28 51.333 26.0005 52.2556 24.7021 51.1483L9.24056 37.9611Z"/>
</mask>
<path d="M9.24056 37.9611L9.88949 37.2002L9.60909 36.9611H9.24056V37.9611ZM0 37.9611H-1V38.9611H0V37.9611ZM0 13.9611V12.9611H-1V13.9611H0ZM8.8986 13.9611V14.9611H9.26713L9.54753 14.7219L8.8986 13.9611ZM24.7021 0.482159L24.0532 -0.278689L24.0532 -0.278689L24.7021 0.482159ZM24.7021 51.1483L24.0532 51.9092L24.0532 51.9092L24.7021 51.1483ZM9.24056 36.9611H0V38.9611H9.24056V36.9611ZM1 37.9611V13.9611H-1V37.9611H1ZM0 14.9611H8.8986V12.9611H0V14.9611ZM9.54753 14.7219L25.3511 1.24301L24.0532 -0.278689L8.24967 13.2002L9.54753 14.7219ZM25.3511 1.24301C26.0002 0.68934 27 1.15065 27 2.00386H29C29 -0.555747 26.0007 -1.9397 24.0532 -0.278689L25.3511 1.24301ZM27 2.00386V49.6266H29V2.00386H27ZM27 49.6266C27 50.4798 26.0002 50.9411 25.3511 50.3875L24.0532 51.9092C26.0007 53.5702 29 52.1862 29 49.6266H27ZM25.3511 50.3875L9.88949 37.2002L8.59163 38.7219L24.0532 51.9092L25.3511 50.3875Z" fill="white" mask="url(#path-1-inside-1_2_28)"/>
<path d="M27 20.9611H29C30.1046 20.9611 31 21.8565 31 22.9611V29.9611C31 31.0656 30.1046 31.9611 29 31.9611H27V20.9611Z" fill="white"/>
</svg>
